<svg width="24" height="24" viewBox="0 0 24 24" fill="none" xmlns="http://www.w3.org/2000/svg">
<path d="M2.33948 12.6434L2.34052 12.6445L8.38821 18.663C8.84127 19.1138 9.57408 19.1122 10.0251 18.659C10.476 18.206 10.4743 17.4732 10.0212 17.0222L5.96077 12.9815L20.8426 12.9815C21.4818 12.9815 22 12.4633 22 11.8241C22 11.1848 21.4818 10.6667 20.8426 10.6667L5.96083 10.6667L10.0211 6.62594C10.4742 6.17501 10.4759 5.4422 10.025 4.98914C9.57403 4.53595 8.84116 4.53439 8.38815 4.9852L2.34047 11.0037L2.33942 11.0048C1.88612 11.4572 1.88757 12.1924 2.33948 12.6434Z" fill="white"/>
</svg>
