<svg width="24" height="24" viewBox="0 0 24 24" fill="none" xmlns="http://www.w3.org/2000/svg">
<path fill-rule="evenodd" clip-rule="evenodd" d="M21.1667 6.4271H6.83333C6.37333 6.4271 6 6.05377 6 5.59377C6 5.13377 6.37333 4.76044 6.83333 4.76044H21.1667C21.6267 4.76044 22 5.13377 22 5.59377C22 6.05377 21.6267 6.4271 21.1667 6.4271ZM13.1667 12.816H2.83333C2.37333 12.816 2 12.4427 2 11.9827C2 11.5227 2.37333 11.1494 2.83333 11.1494H13.1667C13.6267 11.1494 14 11.5227 14 11.9827C14 12.4427 13.6267 12.816 13.1667 12.816ZM8.83333 19.2048H18.1667C18.6267 19.2048 19 18.8315 19 18.3715C19 17.9115 18.6267 17.5381 18.1667 17.5381H8.83333C8.37333 17.5381 8 17.9115 8 18.3715C8 18.8315 8.37333 19.2048 8.83333 19.2048Z" fill="#310099"/>
<path fill-rule="evenodd" clip-rule="evenodd" d="M5.5 5.59377C5.5 4.85763 6.09719 4.26044 6.83333 4.26044H21.1667C21.9028 4.26044 22.5 4.85763 22.5 5.59377C22.5 6.32992 21.9028 6.9271 21.1667 6.9271H6.83333C6.09719 6.9271 5.5 6.32991 5.5 5.59377ZM6.83333 5.26044C6.64947 5.26044 6.5 5.40991 6.5 5.59377C6.5 5.77763 6.64947 5.9271 6.83333 5.9271H21.1667C21.3505 5.9271 21.5 5.77763 21.5 5.59377C21.5 5.40991 21.3505 5.26044 21.1667 5.26044H6.83333ZM1.5 11.9827C1.5 11.2466 2.09719 10.6494 2.83333 10.6494H13.1667C13.9028 10.6494 14.5 11.2466 14.5 11.9827C14.5 12.7189 13.9028 13.316 13.1667 13.316H2.83333C2.09719 13.316 1.5 12.7189 1.5 11.9827ZM2.83333 11.6494C2.64947 11.6494 2.5 11.7989 2.5 11.9827C2.5 12.1666 2.64947 12.316 2.83333 12.316H13.1667C13.3505 12.316 13.5 12.1666 13.5 11.9827C13.5 11.7989 13.3505 11.6494 13.1667 11.6494H2.83333ZM8.83333 18.0381C8.64947 18.0381 8.5 18.1876 8.5 18.3715C8.5 18.5553 8.64947 18.7048 8.83333 18.7048H18.1667C18.3505 18.7048 18.5 18.5553 18.5 18.3715C18.5 18.1876 18.3505 18.0381 18.1667 18.0381H8.83333ZM7.5 18.3715C7.5 17.6353 8.09719 17.0381 8.83333 17.0381H18.1667C18.9028 17.0381 19.5 17.6353 19.5 18.3715C19.5 19.1076 18.9028 19.7048 18.1667 19.7048H8.83333C8.09719 19.7048 7.5 19.1076 7.5 18.3715Z" fill="#310099"/>
</svg>
