<svg width="24" height="24" viewBox="0 0 24 24" fill="none" xmlns="http://www.w3.org/2000/svg">
<path fill-rule="evenodd" clip-rule="evenodd" d="M3.87501 19H20.125C21.1589 19 22 18.1589 22 17.1251V14C22 13.6546 21.7205 13.375 21.375 13.375C20.3411 13.375 19.5 12.534 19.5 11.5C19.5 10.4661 20.3411 9.62502 21.375 9.62502C21.7205 9.62502 22 9.34549 22 9.00002V5.87501C22 4.84108 21.1589 4 20.125 4H3.87501C2.84108 4 2 4.84108 2 5.87501V9.00002C2 9.34549 2.27953 9.62502 2.625 9.62498C3.65893 9.62498 4.50001 10.4661 4.50001 11.5C4.50001 12.5339 3.65893 13.375 2.625 13.375C2.27953 13.375 2 13.6545 2 14V17.125C2 18.1589 2.84108 19 3.87501 19ZM13.2888 6.27555L9.54013 16.272L10.7105 16.7109L14.4592 6.71445L13.2888 6.27555ZM9.0433 11.7104C8.00937 11.7104 7.16829 10.8693 7.16829 9.83542C7.16829 8.80149 8.00937 7.96041 9.0433 7.96041C10.0772 7.96041 10.9183 8.80149 10.9183 9.83542C10.9183 10.8693 10.0772 11.7104 9.0433 11.7104ZM9.0433 9.21042C8.69846 9.21042 8.41829 9.49058 8.41829 9.83542C8.41829 10.1803 8.69846 10.4604 9.0433 10.4604C9.38814 10.4604 9.6683 10.1803 9.6683 9.83542C9.6683 9.49058 9.38814 9.21042 9.0433 9.21042ZM13.6287 13.7116C13.6287 14.7456 14.4698 15.5866 15.5037 15.5866C16.5376 15.5866 17.3787 14.7456 17.3787 13.7116C17.3787 12.6777 16.5376 11.8366 15.5037 11.8366C14.4698 11.8366 13.6287 12.6777 13.6287 13.7116ZM14.8787 13.7116C14.8787 13.3668 15.1588 13.0866 15.5037 13.0866C15.8485 13.0866 16.1287 13.3668 16.1287 13.7116C16.1287 14.0565 15.8485 14.3366 15.5037 14.3366C15.1588 14.3366 14.8787 14.0565 14.8787 13.7116Z" fill="#310099"/>
</svg>
