<svg width="24" height="24" viewBox="0 0 24 24" fill="none" xmlns="http://www.w3.org/2000/svg">
<path d="M7.49793 21.9394C7.74949 22.0625 8.04516 21.9924 8.21547 21.7803L17.5905 10.0225C17.7313 9.84623 17.7581 9.60533 17.6609 9.4022C17.563 9.19962 17.3582 9.07033 17.1327 9.07033H13.3933L16.485 2.84801C16.576 2.6666 16.5662 2.4509 16.4592 2.27809C16.3522 2.10527 16.164 2 15.9609 2H8.92961C8.66067 2 8.42664 2.18313 8.36141 2.44402L6.01765 11.8581C5.97359 12.0332 6.01308 12.2186 6.1241 12.3605C6.23512 12.5029 6.40562 12.5859 6.58586 12.5859H9.35075L7.18953 21.2721C7.12258 21.5394 7.25074 21.8169 7.49793 21.9394V21.9394Z" fill="white"/>
</svg>
