<svg width="48" height="48" viewBox="0 0 48 48" fill="none" xmlns="http://www.w3.org/2000/svg">
<rect width="48" height="48" rx="24" fill="white"/>
<path fill-rule="evenodd" clip-rule="evenodd" d="M30.9291 23H29C28.4477 23 28 23.4477 28 24C28 24.5523 28.4477 25 29 25H30.9291C30.4906 28.0657 28.0657 30.4906 25 30.9291V29C25 28.4477 24.5523 28 24 28C23.4477 28 23 28.4477 23 29V30.9291C19.9343 30.4906 17.5094 28.0657 17.0709 25H19C19.5523 25 20 24.5523 20 24C20 23.4477 19.5523 23 19 23H17.0709C17.5094 19.9343 19.9343 17.5094 23 17.0709V19C23 19.5523 23.4477 20 24 20C24.5523 20 25 19.5523 25 19V17.0709C28.0657 17.5094 30.4906 19.9343 30.9291 23ZM24 33C28.9706 33 33 28.9706 33 24C33 19.0294 28.9706 15 24 15C19.0294 15 15 19.0294 15 24C15 28.9706 19.0294 33 24 33Z" fill="#310099"/>
</svg>
