<svg width="48" height="48" viewBox="0 0 48 48" fill="none" xmlns="http://www.w3.org/2000/svg">
<rect width="48" height="48" rx="24" fill="#EEE6FF"/>
<path d="M33.5358 25.83C33.536 25.8223 33.5361 25.8146 33.5361 25.8069C33.5361 25.1639 33.3237 24.5697 32.9655 24.0904V13.54C32.9653 11.9559 31.6764 10.6669 30.0922 10.6667C28.5079 10.6667 27.2189 11.9557 27.2189 13.5401V19.0672C26.8256 18.8646 26.3802 18.7493 25.9082 18.7492C25.0841 18.7492 24.3403 19.0985 23.8159 19.6562C23.2915 19.0987 22.5479 18.7494 21.724 18.7492C20.8999 18.7492 20.1562 19.0985 19.6318 19.6562C19.1075 19.0987 18.3639 18.7494 17.54 18.7492C15.9556 18.7492 14.6667 20.0382 14.6667 21.6227V25.8068L14.6668 27.8988C14.6668 33.1011 18.8991 37.3334 24.1013 37.3334C29.3036 37.3334 33.5359 33.1011 33.5359 27.8988L33.5358 25.83ZM28.7814 13.5401C28.7814 12.8173 29.3694 12.2292 30.0921 12.2292C30.8148 12.2293 31.4029 12.8174 31.403 13.5401V23.0309C31.1666 22.9678 30.9186 22.9336 30.6626 22.9336H28.7814V21.6226V13.5401ZM25.9081 20.3117C26.6308 20.3119 27.2189 20.9 27.219 21.6227V22.9337L24.5974 22.9337V21.6227C24.5973 20.8998 25.1854 20.3117 25.9081 20.3117ZM21.7239 20.3117C22.4467 20.3119 23.0348 20.9 23.0349 21.6226L23.0348 22.9337L21.724 22.9337C21.2519 22.9337 20.8066 23.0489 20.4133 23.2515V21.6227C20.4133 20.8998 21.0012 20.3117 21.7239 20.3117V20.3117ZM16.2292 21.6227C16.2292 20.8998 16.8172 20.3117 17.5399 20.3117C18.2626 20.3119 18.8507 20.9 18.8508 21.6227V25.8067C18.8507 26.5295 18.2626 27.1175 17.54 27.1175C16.8173 27.1175 16.2292 26.5294 16.2292 25.8067V25.8067V21.6227ZM24.1013 35.7709C19.9188 35.7709 16.4882 32.4919 16.2438 28.3697C16.6335 28.5676 17.0737 28.68 17.5399 28.68H17.54C18.364 28.68 19.1076 28.3308 19.632 27.7732C20.1564 28.3308 20.9 28.68 21.724 28.6801H28.5705C29.002 28.6801 29.3518 28.3303 29.3518 27.8988C29.3518 27.4674 29.002 27.1176 28.5705 27.1176H21.724C21.0013 27.1176 20.4133 26.5295 20.4133 25.8068C20.4133 25.0841 21.0013 24.4962 21.724 24.4962H23.8154H23.8159H23.816H23.816H23.8161H23.8165L30.6626 24.4961C31.3824 24.4962 31.9686 25.0793 31.9735 25.798C31.9733 25.8053 31.9732 25.8126 31.9732 25.8199L31.9733 27.8989C31.9734 32.2395 28.4419 35.7709 24.1013 35.7709Z" fill="#5200FF"/>
</svg>
