<svg width="24" height="24" viewBox="0 0 24 24" fill="none" xmlns="http://www.w3.org/2000/svg">
<path fill-rule="evenodd" clip-rule="evenodd" d="M20.6665 6C21.0346 6 21.3489 6.13025 21.6093 6.39071C21.8696 6.65114 22 6.96542 22 7.33337V16.6667C22 17.0348 21.8696 17.3489 21.6093 17.6093C21.3489 17.8698 21.0346 18.0001 20.6665 18.0001H3.33333C2.96527 18.0001 2.65114 17.8698 2.39068 17.6093C2.13029 17.3489 2 17.0348 2 16.6667V7.33337C2 6.96542 2.13029 6.65114 2.39068 6.39071C2.6511 6.13029 2.96527 6 3.33333 6H20.6665ZM3.33333 16.6667H20.6665V7.33337H3.33333V16.6667ZM5.83326 15.3332H4.83329C4.72223 15.3332 4.66663 15.2775 4.66663 15.1666V14.1666C4.66663 14.0557 4.72223 13.9999 4.83329 13.9999H5.83326C5.9445 13.9999 5.99996 14.0557 5.99996 14.1666V15.1666C5.99996 15.2775 5.94439 15.3332 5.83326 15.3332ZM4.83329 12.6668H7.16663C7.27772 12.6668 7.33336 12.611 7.33336 12.5V11.5C7.33336 11.3889 7.27772 11.3334 7.16663 11.3333H4.83329C4.72223 11.3333 4.66663 11.3889 4.66663 11.5V12.5C4.66663 12.611 4.72223 12.6668 4.83329 12.6668ZM5.83326 9.99999H4.83329C4.72223 9.99999 4.66663 9.94435 4.66663 9.83326V8.83336C4.66663 8.72223 4.72223 8.66662 4.83329 8.66662H5.83326C5.9445 8.66681 5.99996 8.72223 5.99996 8.83336V9.83326C5.99996 9.94435 5.94439 9.99999 5.83326 9.99999ZM16.5001 14H7.50009C7.38896 14 7.33335 14.0557 7.33335 14.1668V15.1666C7.33335 15.2775 7.38896 15.3334 7.50009 15.3334H16.4998C16.6109 15.3334 16.6666 15.2778 16.6666 15.1666V14.1668C16.6666 14.0557 16.6109 14 16.5001 14ZM8.83321 12.6668C8.72222 12.6668 8.66665 12.611 8.66665 12.5V11.5C8.66665 11.3889 8.72222 11.3333 8.83321 11.3333H9.83332C9.94449 11.3334 9.99988 11.3889 9.99988 11.5V12.5C9.99988 12.611 9.94438 12.6668 9.83332 12.6668H8.83321ZM7.50009 9.99999H8.5C8.61113 9.99999 8.66673 9.94435 8.66673 9.83326V8.83336C8.66673 8.72223 8.61113 8.66681 8.5 8.66662H7.50009C7.38896 8.66662 7.33335 8.72223 7.33335 8.83336V9.83326C7.33335 9.94435 7.38899 9.99999 7.50009 9.99999ZM11.4999 12.6668C11.3888 12.6668 11.3332 12.611 11.3332 12.5V11.5C11.3332 11.3889 11.3888 11.3333 11.4999 11.3333H12.4999C12.611 11.3334 12.6667 11.3889 12.6667 11.5V12.5C12.6667 12.611 12.611 12.6668 12.4999 12.6668H11.4999ZM10.1666 9.99999H11.1665C11.2776 9.99999 11.3332 9.94435 11.3332 9.83326V8.83336C11.3332 8.72223 11.2778 8.66681 11.1665 8.66662H10.1666C10.0555 8.66662 9.99988 8.72223 9.99988 8.83336V9.83326C9.99988 9.94435 10.0555 9.99999 10.1666 9.99999ZM14.1665 12.6668C14.0556 12.6668 13.9999 12.611 13.9999 12.5V11.5C13.9999 11.3889 14.0556 11.3333 14.1665 11.3333H15.1666C15.2776 11.3334 15.3331 11.3889 15.3331 11.5V12.5C15.3331 12.611 15.2777 12.6668 15.1666 12.6668H14.1665ZM19.1665 14H18.1667C18.0556 14 17.9999 14.0557 17.9999 14.1668V15.1666C17.9999 15.2775 18.0556 15.3334 18.1667 15.3334H19.1665C19.2776 15.3334 19.3333 15.2778 19.3333 15.1666V14.1668C19.3333 14.0557 19.2777 14 19.1665 14ZM13.8334 9.99999H12.8333C12.7222 9.99999 12.6667 9.94435 12.6668 9.83326V8.83336C12.6668 8.72223 12.7222 8.66662 12.8333 8.66662H13.8334C13.9445 8.66681 13.9999 8.72223 13.9999 8.83336V9.83326C13.9999 9.94435 13.9445 9.99999 13.8334 9.99999ZM15.5 9.99999H16.4998C16.6109 9.99999 16.6666 9.94435 16.6666 9.83326V8.83336C16.6666 8.72223 16.6109 8.66681 16.4998 8.66662H15.5C15.3888 8.66662 15.3332 8.72223 15.3332 8.83336V9.83326C15.3331 9.94435 15.3888 9.99999 15.5 9.99999ZM16.8332 12.6668C16.722 12.6668 16.6665 12.611 16.6665 12.5H16.6665V11.4999C16.6665 11.3889 16.7221 11.3333 16.8332 11.3333H17.9998V8.83336C17.9998 8.72223 18.0555 8.66662 18.1666 8.66662H19.1664C19.2777 8.66681 19.3332 8.72223 19.3332 8.83336V12.5C19.3332 12.611 19.2776 12.6668 19.1664 12.6668H16.8332Z" fill="white"/>
</svg>
