<svg width="74" height="16" viewBox="0 0 74 16" fill="none" xmlns="http://www.w3.org/2000/svg">
<g clip-path="url(#clip0_21_4349)">
<path fill-rule="evenodd" clip-rule="evenodd" d="M57.6433 4.95745C57.232 5.92199 57.0263 6.94326 57.0263 8.02128C57.0263 9.12766 57.232 10.1631 57.6433 11.1277C58.0547 12.0922 58.622 12.9433 59.3454 13.6809C60.083 14.4043 58.2816 16 58.2816 16H65.005C66.0972 16 67.1256 15.7943 68.0901 15.383C69.0547 14.9716 69.9057 14.4043 70.6433 13.6809C71.3951 12.9433 71.9766 12.0922 72.388 11.1277C72.8135 10.1631 73.0263 9.12766 73.0263 8.02128C73.0263 6.94326 72.8135 5.92199 72.388 4.95745C71.9766 3.99291 71.3951 3.14184 70.6433 2.40425C69.9057 1.65248 69.0547 1.06383 68.0901 0.638297C67.1256 0.212766 66.0972 0 65.005 0C63.8986 0 62.8632 0.212766 61.8986 0.638297C60.9341 1.06383 60.083 1.65248 59.3454 2.40425C58.622 3.14184 58.0547 3.99291 57.6433 4.95745ZM60.8561 10.5532C60.4305 9.78723 60.2178 8.94326 60.2178 8.02128C60.2178 7.07092 60.4305 6.21986 60.8561 5.46809C61.2816 4.70213 61.8561 4.09929 62.5795 3.65957C63.3029 3.20567 64.1185 2.97872 65.0263 2.97872C65.9341 2.97872 66.7497 3.20567 67.4731 3.65957C68.1965 4.09929 68.771 4.70213 69.1965 5.46809C69.622 6.21986 69.8348 7.07092 69.8348 8.02128C69.8348 8.94326 69.6291 9.78723 69.2178 10.5532C68.8064 11.305 68.2391 11.9078 67.5157 12.3617C66.8064 12.8014 66.005 13.0213 65.1114 13.0213C64.1894 13.0213 63.3596 12.8014 62.622 12.3617C61.8845 11.9078 61.2958 11.305 60.8561 10.5532Z" fill="#310099"/>
<path fill-rule="evenodd" clip-rule="evenodd" d="M11.2283 0.170212C13.1999 0.170212 14.7105 0.652481 15.7602 1.61702C16.824 2.56738 17.3559 3.84397 17.3559 5.44681C17.3559 6.34043 17.1644 7.21986 16.7815 8.08511C16.4127 8.95035 15.7814 9.6383 14.8878 10.1489L18.5261 15.8298H14.9304L11.6325 10.8511H9.56868V15.8298H6.48358V2.79787L0.973694 0.170212H11.2283ZM11.7602 7.87234C12.3843 7.87234 12.8666 7.74468 13.207 7.48936C13.5616 7.21986 13.8098 6.9078 13.9517 6.55319C14.0935 6.1844 14.1644 5.85106 14.1644 5.55319C14.1644 5.38298 14.1361 5.17021 14.0793 4.91489C14.0368 4.64539 13.9375 4.37589 13.7815 4.10638C13.6254 3.83688 13.3843 3.60993 13.058 3.42553C12.746 3.24113 12.3205 3.14894 11.7814 3.14894H9.56868V7.87234H11.7602Z" fill="#310099"/>
<path d="M35.9633 0.170212H39.0484V15.8298H35.9633V0.170212Z" fill="#310099"/>
<path d="M50.4418 15.1649C50.2215 15.1649 50.0428 15.3435 50.0428 15.5638C50.0428 15.7842 50.2215 15.9628 50.4418 15.9628L56.2928 15.9628C56.5132 15.9628 56.6918 15.7842 56.6918 15.5638C56.6918 15.3435 56.5132 15.1649 56.2928 15.1649L50.4418 15.1649Z" fill="#310099"/>
<path d="M55.096 13.9681C55.096 13.7478 55.2746 13.5691 55.495 13.5691H57.3567C57.577 13.5691 57.7556 13.7478 57.7556 13.9681C57.7556 14.1884 57.577 14.367 57.3567 14.367H55.495C55.2746 14.367 55.096 14.1884 55.096 13.9681Z" fill="#310099"/>
<path d="M53.3673 11.9734C53.147 11.9734 52.9684 12.152 52.9684 12.3723C52.9684 12.5927 53.147 12.7713 53.3673 12.7713H56.2928C56.5132 12.7713 56.6918 12.5927 56.6918 12.3723C56.6918 12.152 56.5132 11.9734 56.2928 11.9734H53.3673Z" fill="#310099"/>
</g>
<defs>
<clipPath id="clip0_21_4349">
<rect width="72.0526" height="16" fill="white" transform="translate(0.973694)"/>
</clipPath>
</defs>
</svg>
