<svg width="80" height="80" viewBox="0 0 80 80" fill="none" xmlns="http://www.w3.org/2000/svg">
<rect width="80" height="80" rx="40" fill="#310099"/>
<path fill-rule="evenodd" clip-rule="evenodd" d="M27.8788 26.6666H37.5758C38.2452 26.6666 38.7879 27.2093 38.7879 27.8788V37.5757C38.7879 38.2452 38.2452 38.7879 37.5758 38.7879H27.8788C27.2094 38.7879 26.6667 38.2452 26.6667 37.5757V27.8788C26.6667 27.2093 27.2094 26.6666 27.8788 26.6666ZM29.0909 36.3636H36.3636V29.0908H29.0909V36.3636ZM32.7273 31.5151C33.0465 31.5151 33.3591 31.6444 33.5846 31.8699C33.81 32.0961 33.9394 32.408 33.9394 32.7273C33.9394 33.0465 33.8101 33.3584 33.5846 33.5846C33.3584 33.8101 33.0465 33.9394 32.7273 33.9394C32.4081 33.9394 32.0961 33.8101 31.8699 33.5846C31.6444 33.3583 31.5152 33.0465 31.5152 32.7273C31.5152 32.408 31.6444 32.0953 31.8699 31.8699C32.0954 31.6444 32.4081 31.5151 32.7273 31.5151ZM48.13 31.8699C47.9038 31.6444 47.5919 31.5151 47.2727 31.5151C46.9535 31.5151 46.6408 31.6444 46.4153 31.8699C46.1898 32.0961 46.0606 32.408 46.0606 32.7273C46.0606 33.0465 46.1898 33.3583 46.4153 33.5846C46.6408 33.8101 46.9535 33.9394 47.2727 33.9394C47.5919 33.9394 47.9038 33.8101 48.13 33.5846C48.3555 33.3584 48.4848 33.0465 48.4848 32.7273C48.4848 32.408 48.3555 32.0961 48.13 31.8699ZM42.4242 26.6666H52.1212C52.7906 26.6666 53.3333 27.2093 53.3333 27.8788V37.5757C53.3333 38.2452 52.7906 38.7879 52.1212 38.7879H42.4242C41.7548 38.7879 41.2121 38.2452 41.2121 37.5757V27.8788C41.2121 27.2093 41.7548 26.6666 42.4242 26.6666ZM43.6364 36.3636H50.9091V29.0908H43.6364V36.3636ZM33.5846 46.4153C33.3584 46.1899 33.0465 46.0606 32.7273 46.0606C32.4081 46.0606 32.0961 46.1899 31.8699 46.4153C31.6444 46.6416 31.5152 46.9535 31.5152 47.2727C31.5152 47.5919 31.6444 47.9047 31.8699 48.1301C32.0961 48.3556 32.4081 48.4849 32.7273 48.4849C33.0465 48.4849 33.3584 48.3556 33.5846 48.1301C33.8101 47.9039 33.9394 47.5919 33.9394 47.2727C33.9394 46.9535 33.81 46.6416 33.5846 46.4153ZM27.8788 41.2121H37.5758C38.2452 41.2121 38.7879 41.7548 38.7879 42.4242V52.1212C38.7879 52.7906 38.2452 53.3333 37.5758 53.3333H27.8788C27.2094 53.3333 26.6667 52.7906 26.6667 52.1212V42.4242C26.6667 41.7548 27.2094 41.2121 27.8788 41.2121ZM29.0909 50.9091H36.3636V43.6363H29.0909V50.9091ZM48.0808 46.0606H47.2727C46.6033 46.0606 46.0606 46.6033 46.0606 47.2727C46.0606 47.9421 46.6033 48.4849 47.2727 48.4849H48.0808C48.7502 48.4849 49.2929 47.9421 49.2929 47.2727C49.2929 46.6033 48.7502 46.0606 48.0808 46.0606ZM50.9091 49.6969C50.9091 49.0275 51.4518 48.4848 52.1212 48.4848C52.7907 48.4848 53.3334 49.0275 53.3334 49.6969V52.1212C53.3334 52.7906 52.7907 53.3333 52.1212 53.3333H48.0808C47.4114 53.3333 46.8687 52.7906 46.8687 52.1212C46.8687 51.4518 47.4114 50.9091 48.0808 50.9091H50.9091V49.6969ZM42.4242 46.0606C41.7548 46.0606 41.2121 46.6033 41.2121 47.2727V48.8889C41.2121 49.5583 41.7548 50.101 42.4242 50.101C43.0937 50.101 43.6364 49.5583 43.6364 48.8889V47.2727C43.6364 46.6033 43.0937 46.0606 42.4242 46.0606ZM45.6566 41.2121H48.0808C48.7502 41.2121 49.2929 41.7548 49.2929 42.4242C49.2929 43.0937 48.7502 43.6364 48.0808 43.6364H45.6566C44.9871 43.6364 44.4444 43.0937 44.4444 42.4242C44.4444 41.7548 44.9871 41.2121 45.6566 41.2121Z" fill="white"/>
</svg>
