<svg width="16" height="22" viewBox="0 0 16 22" fill="none" xmlns="http://www.w3.org/2000/svg">
<path d="M7.8 21.9L7.32 21.36C7.02 21.06 0 12.78 0 7.8C0 3.48 3.48 0 7.8 0C12.12 0 15.6 3.48 15.6 7.8C15.6 12.78 8.58 21.06 8.28 21.42L7.8 21.9ZM7.8 1.2C4.14 1.2 1.2 4.14 1.2 7.8C1.2 11.64 6.24 18.12 7.8 20.04C9.36 18.12 14.4 11.64 14.4 7.8C14.4 4.14 11.46 1.2 7.8 1.2Z" fill="black"/>
<path d="M7.80078 10.7998C6.12078 10.7998 4.80078 9.4798 4.80078 7.7998C4.80078 6.1198 6.12078 4.7998 7.80078 4.7998C9.48078 4.7998 10.8008 6.1198 10.8008 7.7998C10.8008 9.4798 9.48078 10.7998 7.80078 10.7998ZM7.80078 5.9998C6.78078 5.9998 6.00078 6.7798 6.00078 7.7998C6.00078 8.8198 6.78078 9.5998 7.80078 9.5998C8.82078 9.5998 9.60078 8.8198 9.60078 7.7998C9.60078 6.7798 8.82078 5.9998 7.80078 5.9998Z" fill="black"/>
</svg>
